<svg width="41" height="41" viewBox="0 0 41 41" fill="none" xmlns="http://www.w3.org/2000/svg">
<circle cx="20.5" cy="20.5" r="19" fill="#9069FF" fill-opacity="0.6" stroke="white" stroke-width="3"/>
<path d="M8.968 29V12.488H19.768V15.272H12.376V19.736H18.88V22.52H12.376V29H8.968ZM29.0401 29.192C27.8241 29.192 26.8081 29.112 25.9921 28.952C25.1761 28.792 24.5121 28.52 24.0001 28.136C23.4881 27.752 23.0961 27.24 22.8241 26.6C22.5681 25.96 22.3921 25.16 22.2961 24.2C22.2001 23.24 22.1521 22.088 22.1521 20.744C22.1521 19.4 22.2001 18.248 22.2961 17.288C22.3921 16.328 22.5681 15.528 22.8241 14.888C23.0961 14.248 23.4881 13.736 24.0001 13.352C24.5121 12.968 25.1761 12.696 25.9921 12.536C26.8081 12.376 27.8241 12.296 29.0401 12.296C29.5041 12.296 29.9841 12.312 30.4801 12.344C30.9921 12.376 31.4801 12.424 31.9441 12.488C32.4081 12.552 32.8001 12.624 33.1201 12.704V15.32C32.6881 15.272 32.2721 15.232 31.8721 15.2C31.4721 15.152 31.0961 15.12 30.7441 15.104C30.4081 15.088 30.1201 15.08 29.8801 15.08C29.0641 15.08 28.3921 15.112 27.8641 15.176C27.3361 15.24 26.9121 15.376 26.5921 15.584C26.2881 15.776 26.0641 16.08 25.9201 16.496C25.7761 16.896 25.6801 17.44 25.6321 18.128C25.5841 18.816 25.5601 19.688 25.5601 20.744C25.5601 21.784 25.5841 22.656 25.6321 23.36C25.6801 24.048 25.7761 24.6 25.9201 25.016C26.0641 25.416 26.2881 25.72 26.5921 25.928C26.9121 26.12 27.3361 26.248 27.8641 26.312C28.3921 26.376 29.0641 26.408 29.8801 26.408C30.4081 26.408 30.9841 26.384 31.6081 26.336C32.2321 26.288 32.7681 26.232 33.2161 26.168V28.832C32.8641 28.896 32.4481 28.952 31.9681 29C31.4881 29.064 30.9921 29.112 30.4801 29.144C29.9841 29.176 29.5041 29.192 29.0401 29.192Z" fill="white"/>
</svg>
