<svg width="28" height="28" viewBox="0 0 28 28" fill="none" xmlns="http://www.w3.org/2000/svg">
<g filter="url(#filter0_d_331_1862)">
<circle cx="14" cy="12" r="11" stroke="white" stroke-width="2"/>
<path d="M7.92541 16.1175V7.86153H13.3254V9.25353H9.62941V11.4855H12.8814V12.8775H9.62941V16.1175H7.92541ZM17.9614 16.2135C17.3534 16.2135 16.8454 16.1735 16.4374 16.0935C16.0294 16.0135 15.6974 15.8775 15.4414 15.6855C15.1854 15.4935 14.9894 15.2375 14.8534 14.9175C14.7254 14.5975 14.6374 14.1975 14.5894 13.7175C14.5414 13.2375 14.5174 12.6615 14.5174 11.9895C14.5174 11.3175 14.5414 10.7415 14.5894 10.2615C14.6374 9.78153 14.7254 9.38153 14.8534 9.06153C14.9894 8.74153 15.1854 8.48553 15.4414 8.29353C15.6974 8.10153 16.0294 7.96553 16.4374 7.88553C16.8454 7.80553 17.3534 7.76553 17.9614 7.76553C18.1934 7.76553 18.4334 7.77353 18.6814 7.78953C18.9374 7.80553 19.1814 7.82953 19.4134 7.86153C19.6454 7.89353 19.8414 7.92953 20.0014 7.96953V9.27753C19.7854 9.25353 19.5774 9.23353 19.3774 9.21753C19.1774 9.19353 18.9894 9.17753 18.8134 9.16953C18.6454 9.16153 18.5014 9.15753 18.3814 9.15753C17.9734 9.15753 17.6374 9.17353 17.3734 9.20553C17.1094 9.23753 16.8974 9.30553 16.7374 9.40953C16.5854 9.50553 16.4734 9.65753 16.4014 9.86553C16.3294 10.0655 16.2814 10.3375 16.2574 10.6815C16.2334 11.0255 16.2214 11.4615 16.2214 11.9895C16.2214 12.5095 16.2334 12.9455 16.2574 13.2975C16.2814 13.6415 16.3294 13.9175 16.4014 14.1255C16.4734 14.3255 16.5854 14.4775 16.7374 14.5815C16.8974 14.6775 17.1094 14.7415 17.3734 14.7735C17.6374 14.8055 17.9734 14.8215 18.3814 14.8215C18.6454 14.8215 18.9334 14.8095 19.2454 14.7855C19.5574 14.7615 19.8254 14.7335 20.0494 14.7015V16.0335C19.8734 16.0655 19.6654 16.0935 19.4254 16.1175C19.1854 16.1495 18.9374 16.1735 18.6814 16.1895C18.4334 16.2055 18.1934 16.2135 17.9614 16.2135Z" fill="white"/>
</g>
<defs>
<filter id="filter0_d_331_1862" x="0" y="0" width="28" height="28" filterUnits="userSpaceOnUse" color-interpolation-filters="sRGB">
<feFlood flood-opacity="0" result="BackgroundImageFix"/>
<feColorMatrix in="SourceAlpha" type="matrix" values="0 0 0 0 0 0 0 0 0 0 0 0 0 0 0 0 0 0 127 0" result="hardAlpha"/>
<feOffset dy="2"/>
<feGaussianBlur stdDeviation="1"/>
<feComposite in2="hardAlpha" operator="out"/>
<feColorMatrix type="matrix" values="0 0 0 0 0 0 0 0 0 0 0 0 0 0 0 0 0 0 0.4 0"/>
<feBlend mode="normal" in2="BackgroundImageFix" result="effect1_dropShadow_331_1862"/>
<feBlend mode="normal" in="SourceGraphic" in2="effect1_dropShadow_331_1862" result="shape"/>
</filter>
</defs>
</svg>
