<svg width="28" height="28" viewBox="0 0 28 28" fill="none" xmlns="http://www.w3.org/2000/svg">
<g filter="url(#filter0_d_331_1871)">
<path d="M25 12C25 13.6037 24.6587 14.0758 24.4634 14.2198C24.2435 14.382 23.7759 14.4695 22.6936 14.2389C22.0718 14.1065 21.4227 13.9155 20.6843 13.6982C20.1525 13.5418 19.5745 13.3717 18.9272 13.2001C17.4565 12.8103 15.7823 12.4634 14 12.4634C12.2177 12.4634 10.5435 12.8103 9.07282 13.2001C8.42547 13.3717 7.84745 13.5418 7.31569 13.6982C6.57733 13.9155 5.92815 14.1065 5.30638 14.2389C4.22409 14.4695 3.75654 14.382 3.53658 14.2198C3.34129 14.0758 3 13.6037 3 12C3 5.92487 7.92487 1 14 1C20.0751 1 25 5.92487 25 12Z" stroke="white" stroke-width="2"/>
<circle cx="14.2921" cy="12.2927" r="2.92683" fill="white"/>
<circle cx="14" cy="12" r="11" stroke="white" stroke-width="2"/>
<path d="M19.3863 3.65573L15.9049 12.4753L13.6594 11.2127L19.3863 3.65573Z" fill="white"/>
</g>
<defs>
<filter id="filter0_d_331_1871" x="0" y="0" width="28" height="28" filterUnits="userSpaceOnUse" color-interpolation-filters="sRGB">
<feFlood flood-opacity="0" result="BackgroundImageFix"/>
<feColorMatrix in="SourceAlpha" type="matrix" values="0 0 0 0 0 0 0 0 0 0 0 0 0 0 0 0 0 0 127 0" result="hardAlpha"/>
<feOffset dy="2"/>
<feGaussianBlur stdDeviation="1"/>
<feComposite in2="hardAlpha" operator="out"/>
<feColorMatrix type="matrix" values="0 0 0 0 0 0 0 0 0 0 0 0 0 0 0 0 0 0 0.4 0"/>
<feBlend mode="normal" in2="BackgroundImageFix" result="effect1_dropShadow_331_1871"/>
<feBlend mode="normal" in="SourceGraphic" in2="effect1_dropShadow_331_1871" result="shape"/>
</filter>
</defs>
</svg>
