<svg width="41" height="41" viewBox="0 0 41 41" fill="none" xmlns="http://www.w3.org/2000/svg">
<path d="M39.5 20.5C39.5 23.2507 38.9181 24.1505 38.4987 24.4598C38.0422 24.7965 37.1578 24.9226 35.3082 24.5286C34.241 24.3013 33.1179 23.971 31.8479 23.5975C30.9394 23.3303 29.9558 23.041 28.8639 22.7516C26.3588 22.0875 23.5186 21.5 20.5 21.5C17.4814 21.5 14.6412 22.0875 12.1361 22.7516C11.0442 23.041 10.0606 23.3303 9.15208 23.5975C7.88212 23.971 6.75896 24.3013 5.6918 24.5286C3.84216 24.9226 2.95777 24.7965 2.50133 24.4598C2.08188 24.1505 1.5 23.2507 1.5 20.5C1.5 10.0066 10.0066 1.5 20.5 1.5C30.9934 1.5 39.5 10.0066 39.5 20.5Z" fill="#9069FF" fill-opacity="0.6" stroke="white" stroke-width="3"/>
<circle cx="21" cy="21" r="5" fill="white"/>
<circle cx="20.5" cy="20.5" r="19" stroke="white" stroke-width="3"/>
<path d="M29.703 6.24533L23.7557 21.3121L19.9196 19.1551L29.703 6.24533Z" fill="white"/>
</svg>
